<?xml version="1.0" encoding="UTF-8" standalone="no"?>
<svg
   xmlns:dc="http://purl.org/dc/elements/1.1/"
   xmlns:cc="http://creativecommons.org/ns#"
   xmlns:rdf="http://www.w3.org/1999/02/22-rdf-syntax-ns#"
   xmlns:svg="http://www.w3.org/2000/svg"
   xmlns="http://www.w3.org/2000/svg"
   xmlns:sodipodi="http://sodipodi.sourceforge.net/DTD/sodipodi-0.dtd"
   xmlns:inkscape="http://www.inkscape.org/namespaces/inkscape"
   height="44px"
   version="1.1"
   viewBox="0 0 44 44"
   width="44px"
   x="0px"
   y="0px"
   id="svg2"
   inkscape:version="0.48.1 r9760"
   sodipodi:docname="redak.svg">
  <metadata
     id="metadata18">
    <rdf:RDF>
      <cc:Work
         rdf:about="">
        <dc:format>image/svg+xml</dc:format>
        <dc:type
           rdf:resource="http://purl.org/dc/dcmitype/StillImage" />
        <dc:title></dc:title>
      </cc:Work>
    </rdf:RDF>
  </metadata>
  <defs
     id="defs16">
    <inkscape:perspective
       sodipodi:type="inkscape:persp3d"
       inkscape:vp_x="0 : 22 : 1"
       inkscape:vp_y="0 : 1000 : 0"
       inkscape:vp_z="44 : 22 : 1"
       inkscape:persp3d-origin="22 : 14.666667 : 1"
       id="perspective2836" />
  </defs>
  <sodipodi:namedview
     pagecolor="#ffffff"
     bordercolor="#666666"
     borderopacity="1"
     objecttolerance="10"
     gridtolerance="10"
     guidetolerance="10"
     inkscape:pageopacity="0"
     inkscape:pageshadow="2"
     inkscape:window-width="1366"
     inkscape:window-height="721"
     id="namedview14"
     showgrid="false"
     inkscape:zoom="11.598832"
     inkscape:cx="-8.5803544"
     inkscape:cy="21.549867"
     inkscape:window-x="-3"
     inkscape:window-y="-3"
     inkscape:window-maximized="1"
     inkscape:current-layer="g3" />
  <g
     transform="matrix(0.18308778,0,0,0.18308778,6.6100946,3.2385199)"
     id="g3">
    <text
       xml:space="preserve"
       style="font-size:86.50868988px;font-style:normal;font-variant:normal;font-weight:bold;font-stretch:normal;line-height:125%;letter-spacing:0px;word-spacing:0px;fill:#000000;fill-opacity:1;stroke:none;font-family:Courier 10 Pitch;-inkscape-font-specification:Courier 10 Pitch Bold"
       x="-5.0419846"
       y="52.050385"
       id="text3184"
       sodipodi:linespacing="125%"
       transform="scale(1.2326596,0.81125398)"><tspan
         sodipodi:role="line"
         x="-5.0419846"
         y="52.050385"
         id="tspan3194">R3D</tspan><tspan
         sodipodi:role="line"
         x="-5.0419846"
         y="160.18625"
         id="tspan3200">4KT</tspan><tspan
         sodipodi:role="line"
         x="-5.0419846"
         y="268.32211"
         id="tspan3202">17O</tspan></text>
    <text
       xml:space="preserve"
       style="font-size:86.50868988px;font-style:normal;font-variant:normal;font-weight:bold;font-stretch:normal;line-height:125%;letter-spacing:0px;word-spacing:0px;fill:#cccccc;fill-opacity:1;stroke:none;font-family:Courier 10 Pitch;-inkscape-font-specification:Courier 10 Pitch Bold"
       x="-9.8388596"
       y="43.806164"
       id="text3184-4"
       sodipodi:linespacing="125%"
       transform="scale(1.2326596,0.81125398)"><tspan
         sodipodi:role="line"
         x="-9.8388596"
         y="43.806164"
         id="tspan3194-3">R3D</tspan><tspan
         sodipodi:role="line"
         x="-9.8388596"
         y="151.94202"
         id="tspan3200-7">4KT</tspan><tspan
         sodipodi:role="line"
         x="-9.8388596"
         y="260.07788"
         id="tspan3202-1">17O</tspan></text>
    <path
       style="opacity:0.98999999;fill:#ff0000;stroke:#000000;stroke-width:4.42944288;stroke-miterlimit:4;stroke-opacity:1"
       d="m 139.26406,99.193904 c 0,39.635286 -25.86935,71.765996 -57.780643,71.765996 -31.91129,0 -57.78063,-32.13071 -57.78063,-71.765996 0,-39.6355 25.86934,-71.76621 57.78063,-71.76621 31.911293,0 57.780643,32.13071 57.780643,71.76621 z"
       id="path4035"
       inkscape:connector-curvature="0" />
    <path
       style="opacity:0.98999999;fill:#00ff00;stroke:#000000;stroke-width:4.54209471;stroke-miterlimit:4;stroke-opacity:1"
       d="m 98.139823,126.05909 c 1.888087,-1.85147 -16.797844,75.2969 -14.446344,75.2645 2.35151,-0.0322 -17.54667,-76.65007 -15.63001,-74.85071 1.91686,1.79918 -59.4120705,2.16845 -58.6621405,5.112 0.7499205,2.94375 49.7735805,-45.726474 49.0702705,-42.762834 -0.70352,2.96363 -19.92095,-73.956621 -21.80885,-72.104961 -1.88809,1.85147 48.30851,48.389601 45.957,48.421811 -2.3515,0.0322 47.100291,-47.876141 45.183611,-49.675321 -1.91684,-1.79937 -19.91731,75.632831 -20.66723,72.689081 -0.74991,-2.94355 49.03042,44.367624 49.73375,41.403984 0.7035,-2.96364 -60.617971,-1.6459 -58.730057,-3.49755 z"
       id="path3067"
       inkscape:connector-curvature="0" />
    <path
       style="fill:none;stroke:#000000;stroke-width:5.55144882;stroke-linecap:butt;stroke-linejoin:miter;stroke-miterlimit:4;stroke-opacity:1"
       d="m 82.77545,104.02824 c -0.8058,1.54813 -1.99093,-0.71978 -1.97673,-1.79482 0.04,-3.097394 2.86189,-4.305624 4.77109,-3.573334 3.48932,1.33802 4.66607,6.876694 3.40231,10.994754 -1.88244,6.13418 -7.62589,8.08379 -11.94266,5.41193 -5.818984,-3.60176 -7.602594,-13.32141 -4.79495,-20.609624 3.56523,-9.25527 12.57574,-12.02205 19.30081,-7.25715 8.20726,5.81493 10.61647,19.926024 6.1974,30.409604 -5.2418,12.43546 -17.61675,16.03514 -26.772524,9.11619 -10.63121,-8.03395 -13.67513,-26.62785 -7.60988,-40.335574 6.92676,-15.65488 22.719684,-20.0975 34.326334,-10.98813 13.08084,10.26626 16.766,33.400714 9.03181,50.357614 -8.62209,18.90403 -27.87009,24.19679 -41.945484,12.87161 -15.55047,-12.512 -19.88162,-40.229654 -10.46175,-60.457704 10.32724,-22.17688 33.059114,-28.32603 49.618694,-14.76514 18.03632,14.77026 23.01783,47.105424 11.89898,70.623354 -12.04169,25.46981 -38.2807,32.48045 -57.338144,16.66775 -20.53634,-17.04005 -26.17185,-54.020924 -13.34257,-80.846014 13.76413,-28.77999 43.530504,-36.65631 65.097624,-18.57834 23.04878,19.3201 29.34137,60.971534 14.79238,91.118704 -15.49443,32.1057 -48.80563,40.85167 -72.893364,20.49651 -25.57209,-21.60963 -32.52451,-67.953364 -16.24723,-101.436314 17.23123,-35.44505 54.102734,-45.06427 80.721084,-22.4213 1.05299,0.89561 2.08467,1.83518 3.09306,2.81662"
       id="path3937"
       inkscape:connector-curvature="0" />
    <text
       xml:space="preserve"
       style="font-size:9.99999995px;font-style:normal;font-weight:normal;line-height:125%;letter-spacing:0px;word-spacing:0px;fill:#000000;fill-opacity:1;stroke:none;font-family:Courier 10 Pitch;-inkscape-font-specification:Courier 10 Pitch;font-stretch:normal;font-variant:normal"
       x="15.863666"
       y="3.6511102"
       id="text3180"
       sodipodi:linespacing="125%"
       transform="matrix(5.461861,0,0,5.461861,-36.103418,-17.688345)"><tspan
         sodipodi:role="line"
         id="tspan3182"
         x="15.863666"
         y="3.6511102" /></text>
  </g>
</svg>
