<?xml version="1.0" encoding="UTF-8" standalone="no"?>
<svg
   xmlns:dc="http://purl.org/dc/elements/1.1/"
   xmlns:cc="http://creativecommons.org/ns#"
   xmlns:rdf="http://www.w3.org/1999/02/22-rdf-syntax-ns#"
   xmlns:svg="http://www.w3.org/2000/svg"
   xmlns="http://www.w3.org/2000/svg"
   xmlns:sodipodi="http://sodipodi.sourceforge.net/DTD/sodipodi-0.dtd"
   xmlns:inkscape="http://www.inkscape.org/namespaces/inkscape"
   height="44px"
   version="1.1"
   viewBox="0 0 44 44"
   width="44px"
   x="0px"
   y="0px"
   id="svg2"
   inkscape:version="0.48.1 r9760"
   sodipodi:docname="redak.svg">
  <metadata
     id="metadata18">
    <rdf:RDF>
      <cc:Work
         rdf:about="">
        <dc:format>image/svg+xml</dc:format>
        <dc:type
           rdf:resource="http://purl.org/dc/dcmitype/StillImage" />
        <dc:title />
      </cc:Work>
    </rdf:RDF>
  </metadata>
  <defs
     id="defs16">
    <inkscape:perspective
       sodipodi:type="inkscape:persp3d"
       inkscape:vp_x="0 : 22 : 1"
       inkscape:vp_y="0 : 1000 : 0"
       inkscape:vp_z="44 : 22 : 1"
       inkscape:persp3d-origin="22 : 14.666667 : 1"
       id="perspective2836" />
  </defs>
  <sodipodi:namedview
     pagecolor="#ffffff"
     bordercolor="#666666"
     borderopacity="1"
     objecttolerance="10"
     gridtolerance="10"
     guidetolerance="10"
     inkscape:pageopacity="0"
     inkscape:pageshadow="2"
     inkscape:window-width="1366"
     inkscape:window-height="721"
     id="namedview14"
     showgrid="false"
     inkscape:zoom="11.598832"
     inkscape:cx="-5.2806808"
     inkscape:cy="21.549867"
     inkscape:window-x="-3"
     inkscape:window-y="-3"
     inkscape:window-maximized="1"
     inkscape:current-layer="g3" />
  <g
     transform="matrix(0.18308778,0,0,0.18308778,6.6100946,3.2385199)"
     id="g3">
    <path
       style="opacity:0.98999999;fill:#ff0000;stroke:#000000;stroke-width:5.9603405;stroke-miterlimit:4;stroke-opacity:1"
       d="m 168.1303,91.244018 c 0,47.525092 -39.06506,86.051772 -87.253991,86.051772 -48.188935,0 -87.2539792,-38.52668 -87.2539792,-86.051772 0,-47.525355 39.0650442,-86.0520127 87.2539792,-86.0520127 48.188931,0 87.253991,38.5266577 87.253991,86.0520127 z"
       id="path4035"
       inkscape:connector-curvature="0" />
    <path
       style="opacity:0.98999999;fill:#00ff00;stroke:#000000;stroke-width:6.11192703;stroke-miterlimit:4;stroke-opacity:1"
       d="m 106.02899,123.45699 c 2.85117,-2.22 -25.366265,90.28554 -21.815285,90.24669 3.550991,-0.0388 -26.497061,-91.90807 -23.602731,-89.75052 2.89463,2.15733 -89.717602,2.6001 -88.585139,6.12959 1.132447,3.52974 75.162609,-54.828798 74.100547,-51.275214 C 45.064003,82.361107 16.043946,-9.8709135 13.193047,-7.6506609 10.341859,-5.4306378 86.143262,50.371389 82.592269,50.410011 79.041296,50.448621 153.71797,-6.9963702 150.82361,-9.1536959 147.929,-11.31125 120.74668,81.534632 119.61423,78.004896 c -1.13245,-3.529494 74.04036,53.199454 75.10245,49.645874 1.06236,-3.55358 -91.53862,-1.97352 -88.68769,-4.19378 z"
       id="path3067"
       inkscape:connector-curvature="0" />
    <path
       style="fill:none;stroke:#000000;stroke-width:7.4701333;stroke-linecap:butt;stroke-linejoin:miter;stroke-miterlimit:4;stroke-opacity:1"
       d="m 82.827397,97.040681 c -1.216832,1.856305 -3.006486,-0.863062 -2.985043,-2.152097 0.06042,-3.713967 4.321713,-5.162709 7.204784,-4.284653 5.269184,1.604374 7.046187,8.245584 5.137786,13.183369 -2.842653,7.35525 -11.515779,9.69296 -18.034492,6.48926 C 65.363239,105.95782 62.669827,94.303367 66.909623,85.564359 72.293442,74.466734 85.90013,71.149197 96.055589,76.862599 108.4493,83.835051 112.08743,100.75511 105.41421,113.32555 97.498626,128.23642 78.81134,132.55265 64.985294,124.25641 48.931204,114.62321 44.334609,92.328017 53.493686,75.891625 63.953721,57.12048 87.802463,51.79351 105.32956,62.716195 125.0828,75.02606 130.64773,102.76567 118.96841,123.09802 105.94827,145.76509 76.882049,152.11141 55.626931,138.53185 32.144314,123.52921 25.603887,90.294071 39.828741,66.039414 55.423809,39.447998 89.750994,32.074796 114.75746,48.335122 c 27.23647,17.710431 34.759,56.482248 17.96852,84.681668 C 114.54195,163.55662 74.918674,171.9628 46.140209,153.00242 15.128479,132.57038 6.6183482,88.228067 25.991721,56.063171 c 20.785084,-34.508942 65.735,-43.953126 98.303289,-22.27655 34.80575,23.165965 44.30813,73.108539 22.33786,109.256829 -23.398,38.49666 -73.70093,48.9836 -110.075588,24.57654 C -2.0588875,141.70873 -12.557671,86.139815 12.022494,45.991736 38.043211,3.4909847 93.722518,-8.0430412 133.91864,19.107246 c 1.5901,1.073891 3.14803,2.200491 4.67079,3.377298"
       id="path3937"
       inkscape:connector-curvature="0" />
    <text
       xml:space="preserve"
       style="font-size:9.99999995px;font-style:normal;font-weight:normal;line-height:125%;letter-spacing:0px;word-spacing:0px;fill:#000000;fill-opacity:1;stroke:none;font-family:Courier 10 Pitch;-inkscape-font-specification:Courier 10 Pitch;font-stretch:normal;font-variant:normal"
       x="15.863666"
       y="3.6511102"
       id="text3180"
       sodipodi:linespacing="125%"
       transform="matrix(5.461861,0,0,5.461861,-36.103418,-17.688345)"><tspan
         sodipodi:role="line"
         id="tspan3182"
         x="15.863666"
         y="3.6511102" /></text>
  </g>
</svg>
